#!OML:ASF F:\VICON\USERDATA\INSTALL\rory3\rory3.ASF
:FULLY-SPECIFIED
:DEGREES
100
root 0.8967637800621122 17.987457458948075 41.53839000368757 3.3027592729160946 -0.9008900676593375 -3.5723753440412462
lfemur -23.620002920048098 9.477577354007952 -7.618320882690821
ltibia 80.65953363266807
lfoot 9.017819224885468 -9.736248143016248
ltoes 2.4523574596681748
rfemur -15.95204505329717 4.533411176687938 34.2172717222946
rtibia 81.07740672392771
rfoot -17.91037410313558 -17.919733350022746
rtoes 6.386589670901508
lowerback nan -0.9026093876451343 0.8356137186967143
upperback 0.14411580599868357 1.656346994497123 1.0465736640761731
thorax -7.454910636546946 -0.0022399013680524105 1.967901693788907
lowerneck -17.959415753375914 -4.144234513815229 -2.1860236027366393
upperneck 4.984355159072907 -5.792161636411405 5.622093876555207
head 5.281287185221166 -1.8904362500914795 1.0920488250504463
lclavicle 2.5195008117275608e-14 7.181250753970887e-15
lhumerus -53.386649877827914 -3.3461063645426674 89.36222202469291
lradius 103.87601786799151
lwrist 32.944745708841246
lhand -27.814766223280515 1.956622662279882
lfingers nan
lthumb -0.8998931136966102 31.606382253742535
rclavicle 2.4882299321065022e-14 1.0043604252252599e-14
rhumerus -40.478324408656405 8.857087604196987 -96.87656290624383
rradius 100.46745297667144
rwrist -14.064189621539638
rhand -22.36468792006984 nan
rfingers nan
rthumb 3.957687776580899 13.383499140005636
101
root 0.9302686062719681 17.987767371968058 42.03535937239198 3.2587407845553473 0.18001404124635711 -2.956411568924068
lfemur -26.90209944816929 8.518080058692322 -8.721611021106746
ltibia 80.44562241031323
lfoot 7.4633572507667525 -8.05007274379392
ltoes 1.4060891041699382
rfemur -14.442546654903577 3.355626326271988 33.37990342877471
rtibia 80.0541755558504
rfoot -18.49494728095808 -17.47106486066376
rtoes 6.547002048919694
lowerback nan -1.0896534175364465 0.7000014680525453
upperback -0.009599883816001742 1.4376444871912086 0.8930214944771266
thorax -7.622504846756463 -0.1435974562903799 1.9364746538887976
lowerneck -17.869709756540292 -4.299737523531406 -2.207294468416071
upperneck 5.134415763454128 -5.967426401720463 5.754204244472876
head 5.319391072131028 -1.9938027629537272 1.0966348281766423
lclavicle -1.2048863969160833e-14 -1.3771724220338614e-14
lhumerus -54.116466547016536 -3.7875358620860107 89.8055749535531
lradius 104.21912676512709
lwrist 32.45635143753736
lhand -26.694386900863748 1.2940588155253117
lfingers nan
lthumb 0.15105438811445593 30.918502401377502
rclavicle -1.1846527849596245e-14 -1.0492391374815063e-14
rhumerus -39.86715373089437 9.349786688244095 -96.77390129918335
rradius 101.85296654533555
rwrist -14.946071415056831
rhand -22.75412854520762 nan
rfingers nan
rthumb 3.5757378538942293 13.364474528101475
102
root 0.9610300978254471 18.00719463463826 42.10773545651101 3.52577993005207 0.10062751284487148 -2.8023847086156866
lfemur -29.343627330526054 8.752454789288617 -9.159834657676688
ltibia 79.58442219144438
lfoot 5.5142741094754895 -6.282049508097689
ltoes 2.197903768363748
rfemur -12.836751797181389 2.8996651809620126 32.86735864052012
rtibia 78.94461884169921
rfoot -18.900203437302558 -16.696714965020554
rtoes 4.642339190532859
lowerback nan -0.9884788569538955 0.8445061022456413
upperback -0.054344833832421835 1.5399066755842872 0.7659441585358309
thorax -6.93233873938826 -0.1310271091719627 1.844705755198362
lowerneck -18.122436100704377 -4.4971212617368534 -2.2531466511788008
upperneck 5.370499211011133 -6.201888066153489 5.990368001899958
head 5.461767019726743 -2.120988454950002 1.122301308307704
lclavicle -6.498498945209786e-15 -1.393165016547041e-14
lhumerus -54.61215580512908 -4.2497145425178875 90.29223478759751
lradius 104.56005824364473
lwrist 32.285834827180324
lhand -25.556940884233533 0.418961538382149
lfingers nan
lthumb 1.2010616372821823 30.012696664271633
rclavicle -6.423639900737812e-15 -1.049823445100298e-14
rhumerus -39.61873842538763 9.56307785264066 -96.74189914379537
rradius 104.04930881445476
rwrist -16.41986276973607
rhand -23.593675061875977 nan
rfingers nan
rthumb 2.7663151548416325 14.215474579329284
103
root 0.9718853019847601 18.036442049910267 42.26734527784306 3.526573807186274 0.22181323864947555 -2.7982463737837744
lfemur -31.56406974548503 8.692316199710886 -9.340529243422111
ltibia 78.51359186141937
lfoot 3.896733913111202 -4.785535427406769
ltoes 2.3739412496174914
rfemur -11.089864152080596 2.3519229438623643 32.73426025119489
rtibia 77.91364505668044
rfoot -18.647302330641317 -16.649501759739273
rtoes -0.08298114767473574
lowerback nan -0.9483002785091962 0.9917745951495699
upperback -0.060873228888256414 1.6582090001829908 0.6866948233333541
thorax -6.845445334311879 -0.09397809746912411 1.7770588826310776
lowerneck -18.83707061656909 -4.685267474341774 -2.3044911817842095
upperneck 5.793262702904016 -6.43703752990902 6.245388840457311
head 5.7592505018725175 -2.2415182859112757 1.1461455732709578
lclavicle -2.0153959952674948e-14 -2.6212816065018115e-14
lhumerus -54.86743527158712 -4.848449539636932 90.78030872614252
lradius 105.00210140599414
lwrist 32.77706415634088
lhand -25.02993674998682 -0.6159337753843124
lfingers nan
lthumb 1.706980487186648 28.988240951293193
rclavicle -2.0018054104225158e-14 -2.252285765492482e-14
rhumerus -39.39767762160585 9.556062008450207 -96.6877029600898
rradius 106.38013869179478
rwrist -17.799438012720493
rhand -24.22337833349154 nan
rfingers nan
rthumb 2.1354234027189216 17.990594615129307
